REM DIRINDEX 1\6,1\2\7,1\2\8,1\2\9,1\3\10,1\3\11,1\4\12,1\4\13,1\4\14,1\5\15,1\5\16,1\5\17
REM DIRNAME cjc040,folder01,folder02,folder03,folder04,folder05,folder06,folder07,folder08,folder09,folder10,folder11,folder12,folder13,folder14,folder15,folder16
TITLE ""
FILE "P2Q_t_0583-0600.mp3" MP3
  TRACK 01 AUDIO
    TITLE "10:cjc040_2818"
    INDEX 01 00:00:00
  TRACK 02 AUDIO
    TITLE "0:"
    INDEX 01 00:01:09
  TRACK 03 AUDIO
    TITLE "11:cjc040_2819"
    INDEX 01 00:01:66
  TRACK 04 AUDIO
    TITLE "0:"
    INDEX 01 00:04:27
  TRACK 05 AUDIO
    TITLE "10:cjc040_2820"
    INDEX 01 00:05:07
  TRACK 06 AUDIO
    TITLE "0:"
    INDEX 01 00:06:06
  TRACK 07 AUDIO
    TITLE "11:cjc040_2821"
    INDEX 01 00:06:61
  TRACK 08 AUDIO
    TITLE "0:"
    INDEX 01 00:09:24
  TRACK 09 AUDIO
    TITLE "10:cjc040_2822"
    INDEX 01 00:10:02
  TRACK 10 AUDIO
    TITLE "0:"
    INDEX 01 00:11:17
  TRACK 11 AUDIO
    TITLE "11:cjc040_2823"
    INDEX 01 00:12:03
  TRACK 12 AUDIO
    TITLE "0:"
    INDEX 01 00:13:65
  TRACK 13 AUDIO
    TITLE "10:cjc040_2824"
    INDEX 01 00:14:49
  TRACK 14 AUDIO
    TITLE "0:"
    INDEX 01 00:15:62
  TRACK 15 AUDIO
    TITLE "11:cjc040_2825"
    INDEX 01 00:16:42
  TRACK 16 AUDIO
    TITLE "0:"
    INDEX 01 00:17:51
  TRACK 17 AUDIO
    TITLE "10:cjc040_2826"
    INDEX 01 00:18:27
  TRACK 18 AUDIO
    TITLE "0:"
    INDEX 01 00:19:44
  TRACK 19 AUDIO
    TITLE "11:cjc040_2827"
    INDEX 01 00:20:28
  TRACK 20 AUDIO
    TITLE "0:"
    INDEX 01 00:22:42
  TRACK 21 AUDIO
    TITLE "10:cjc040_2828"
    INDEX 01 00:23:18
  TRACK 22 AUDIO
    TITLE "0:"
    INDEX 01 00:24:29
  TRACK 23 AUDIO
    TITLE "11:cjc040_2829"
    INDEX 01 00:25:09
  TRACK 24 AUDIO
    TITLE "0:"
    INDEX 01 00:28:15
  TRACK 25 AUDIO
    TITLE "10:cjc040_2830"
    INDEX 01 00:28:70
  TRACK 26 AUDIO
    TITLE "0:"
    INDEX 01 00:30:16
  TRACK 27 AUDIO
    TITLE "11:cjc040_2831"
    INDEX 01 00:30:65
  TRACK 28 AUDIO
    TITLE "0:"
    INDEX 01 00:32:03
  TRACK 29 AUDIO
    TITLE "10:cjc040_2832"
    INDEX 01 00:32:58
  TRACK 30 AUDIO
    TITLE "0:"
    INDEX 01 00:33:60
  TRACK 31 AUDIO
    TITLE "11:cjc040_2833"
    INDEX 01 00:34:43
  TRACK 32 AUDIO
    TITLE "0:"
    INDEX 01 00:36:33
  TRACK 33 AUDIO
    TITLE "10:cjc040_2834"
    INDEX 01 00:37:12
  TRACK 34 AUDIO
    TITLE "0:"
    INDEX 01 00:38:43
  TRACK 35 AUDIO
    TITLE "11:cjc040_2835"
    INDEX 01 00:39:27
  TRACK 36 AUDIO
    TITLE "0:"
    INDEX 01 00:41:30
  TRACK 37 AUDIO
    TITLE "10:cjc040_2836"
    INDEX 01 00:42:12
  TRACK 38 AUDIO
    TITLE "0:"
    INDEX 01 00:43:42
  TRACK 39 AUDIO
    TITLE "11:cjc040_2837"
    INDEX 01 00:44:24
  TRACK 40 AUDIO
    TITLE "0:"
    INDEX 01 00:45:30
  TRACK 41 AUDIO
    TITLE "10:cjc040_2838"
    INDEX 01 00:46:11
  TRACK 42 AUDIO
    TITLE "0:"
    INDEX 01 00:47:30
  TRACK 43 AUDIO
    TITLE "11:cjc040_2839"
    INDEX 01 00:48:06
  TRACK 44 AUDIO
    TITLE "0:"
    INDEX 01 00:51:32
  TRACK 45 AUDIO
    TITLE "10:cjc040_2840"
    INDEX 01 00:52:06
  TRACK 46 AUDIO
    TITLE "0:"
    INDEX 01 00:53:06
  TRACK 47 AUDIO
    TITLE "11:cjc040_2841"
    INDEX 01 00:53:62
  TRACK 48 AUDIO
    TITLE "0:"
    INDEX 01 00:57:45
  TRACK 49 AUDIO
    TITLE "10:cjc040_2842"
    INDEX 01 00:58:20
  TRACK 50 AUDIO
    TITLE "0:"
    INDEX 01 00:59:47
  TRACK 51 AUDIO
    TITLE "11:cjc040_2843"
    INDEX 01 01:00:25
  TRACK 52 AUDIO
    TITLE "0:"
    INDEX 01 01:02:69
  TRACK 53 AUDIO
    TITLE "10:cjc040_2844"
    INDEX 01 01:03:47
  TRACK 54 AUDIO
    TITLE "0:"
    INDEX 01 01:04:54
  TRACK 55 AUDIO
    TITLE "11:cjc040_2845"
    INDEX 01 01:05:28
  TRACK 56 AUDIO
    TITLE "0:"
    INDEX 01 01:07:51
  TRACK 57 AUDIO
    TITLE "10:cjc040_2846"
    INDEX 01 01:08:27
  TRACK 58 AUDIO
    TITLE "0:"
    INDEX 01 01:09:24
  TRACK 59 AUDIO
    TITLE "11:cjc040_2847"
    INDEX 01 01:10:14
  TRACK 60 AUDIO
    TITLE "0:"
    INDEX 01 01:12:32
  TRACK 61 AUDIO
    TITLE "10:cjc040_2848"
    INDEX 01 01:13:14
  TRACK 62 AUDIO
    TITLE "0:"
    INDEX 01 01:14:33
  TRACK 63 AUDIO
    TITLE "11:cjc040_2849"
    INDEX 01 01:15:07
  TRACK 64 AUDIO
    TITLE "0:"
    INDEX 01 01:16:18
  TRACK 65 AUDIO
    TITLE "10:cjc040_2850"
    INDEX 01 01:16:71
  TRACK 66 AUDIO
    TITLE "0:"
    INDEX 01 01:18:15
  TRACK 67 AUDIO
    TITLE "11:cjc040_2851"
    INDEX 01 01:18:68
  TRACK 68 AUDIO
    TITLE "0:"
    INDEX 01 01:21:08
  TRACK 69 AUDIO
    TITLE "10:cjc040_2852"
    INDEX 01 01:21:67
  TRACK 70 AUDIO
    TITLE "0:"
    INDEX 01 01:23:22
  TRACK 71 AUDIO
    TITLE "11:cjc040_2853"
    INDEX 01 01:24:00
  TRACK 72 AUDIO
    TITLE "0:"
    INDEX 01 01:25:06
